<svg width="1024" height="1024" viewBox="0 0 1024 1024" fill="none" xmlns="http://www.w3.org/2000/svg">
  <defs>
    <linearGradient id="bgGradient" x1="0%" y1="0%" x2="100%" y2="100%">
      <stop offset="0%" style="stop-color:#4CAF50;stop-opacity:1" />
      <stop offset="100%" style="stop-color:#2E7D32;stop-opacity:1" />
    </linearGradient>
    <linearGradient id="cubeGradient" x1="0%" y1="0%" x2="100%" y2="100%">
      <stop offset="0%" style="stop-color:#FFD700;stop-opacity:1" />
      <stop offset="50%" style="stop-color:#FFA000;stop-opacity:1" />
      <stop offset="100%" style="stop-color:#FF6F00;stop-opacity:1" />
    </linearGradient>
  </defs>
  
  <circle cx="512" cy="512" r="480" fill="url(#bgGradient)" stroke="#1B5E20" stroke-width="8"/>
  
  <g transform="translate(512, 512)">
    <rect x="-120" y="-120" width="240" height="240" fill="url(#cubeGradient)" stroke="#E65100" stroke-width="4"/>
    <polygon points="-120,-120 0,-200 120,-120" fill="#FFB300" stroke="#E65100" stroke-width="4"/>
    <polygon points="120,-120 120,120 0,200" fill="#FF8F00" stroke="#E65100" stroke-width="4"/>
    
    <g stroke="#E65100" stroke-width="2" fill="none">
      <line x1="-80" y1="-120" x2="-80" y2="120"/>
      <line x1="-40" y1="-120" x2="-40" y2="120"/>
      <line x1="0" y1="-120" x2="0" y2="120"/>
      <line x1="40" y1="-120" x2="40" y2="120"/>
      <line x1="80" y1="-120" x2="80" y2="120"/>
      <line x1="-120" y1="-80" x2="120" y2="-80"/>
      <line x1="-120" y1="-40" x2="120" y2="-40"/>
      <line x1="-120" y1="0" x2="120" y2="0"/>
      <line x1="-120" y1="40" x2="120" y2="40"/>
      <line x1="-120" y1="80" x2="120" y2="80"/>
    </g>
    
    <g stroke="#FFD700" stroke-width="6" fill="none" opacity="0.8">
      <line x1="180" y1="-60" x2="280" y2="-60"/>
      <line x1="180" y1="-20" x2="260" y2="-20"/>
      <line x1="180" y1="20" x2="240" y2="20"/>
      <line x1="180" y1="60" x2="220" y2="60"/>
    </g>
  </g>
</svg>